<svg width="25" height="25" viewBox="0 0 25 25" fill="none" xmlns="http://www.w3.org/2000/svg">
<path opacity="0.4" d="M17.3948 2.89685H8.05257C4.64813 2.89685 2.71924 4.82574 2.71924 8.23018V17.5635C2.71924 20.968 4.64813 22.8969 8.05257 22.8969H17.3948C20.7992 22.8969 22.7192 20.968 22.7192 17.5635V8.23018C22.7192 4.82574 20.7992 2.89685 17.3948 2.89685Z" fill="white"/>
<path d="M8.0879 10.2659C7.63456 10.2659 7.26123 10.6392 7.26123 11.1014V17.9725C7.26123 18.4259 7.63456 18.7992 8.0879 18.7992C8.55012 18.7992 8.92345 18.4259 8.92345 17.9725V11.1014C8.92345 10.6392 8.55012 10.2659 8.0879 10.2659Z" fill="white"/>
<path d="M12.7546 6.98584C12.3013 6.98584 11.928 7.35917 11.928 7.8214V17.9725C11.928 18.4258 12.3013 18.7992 12.7546 18.7992C13.2169 18.7992 13.5902 18.4258 13.5902 17.9725V7.8214C13.5902 7.35917 13.2169 6.98584 12.7546 6.98584Z" fill="white"/>
<path d="M17.3591 13.8925C16.8969 13.8925 16.5236 14.2658 16.5236 14.728V17.9725C16.5236 18.4258 16.8969 18.7991 17.3502 18.7991C17.8124 18.7991 18.1858 18.4258 18.1858 17.9725V14.728C18.1858 14.2658 17.8124 13.8925 17.3591 13.8925Z" fill="white"/>
</svg>
