<svg width="21" height="20" viewBox="0 0 21 20" fill="none" xmlns="http://www.w3.org/2000/svg">
<path fill-rule="evenodd" clip-rule="evenodd" d="M0.5 10.0001C0.5 4.48012 4.97 0.00012207 10.5 0.00012207C16.02 0.00012207 20.5 4.48012 20.5 10.0001C20.5 15.5301 16.02 20.0001 10.5 20.0001C4.97 20.0001 0.5 15.5301 0.5 10.0001ZM12.73 11.8301L14.35 6.71012C14.46 6.36012 14.14 6.03012 13.79 6.14012L8.67 7.74012C8.46 7.81012 8.29 7.97012 8.23 8.18012L6.63 13.3101C6.52 13.6501 6.85 13.9801 7.19 13.8701L12.29 12.2701C12.5 12.2101 12.67 12.0401 12.73 11.8301Z" fill="#CACACA"/>
</svg>
