<svg width="38" height="38" viewBox="0 0 38 38" fill="none" xmlns="http://www.w3.org/2000/svg">
<rect width="38" height="38" rx="19" fill="white" fill-opacity="0.12"/>
<path d="M28.92 23.75C28.59 26.41 26.41 28.59 23.75 28.92C22.14 29.12 20.64 28.68 19.47 27.82C18.8 27.33 18.96 26.29 19.76 26.05C22.77 25.14 25.14 22.76 26.06 19.75C26.3 18.96 27.34 18.8 27.83 19.46C28.68 20.64 29.12 22.14 28.92 23.75Z" fill="white"/>
<path d="M16.99 9C12.58 9 9 12.58 9 16.99C9 21.4 12.58 24.98 16.99 24.98C21.4 24.98 24.98 21.4 24.98 16.99C24.97 12.58 21.4 9 16.99 9ZM16.05 15.87L18.46 16.71C19.33 17.02 19.75 17.63 19.75 18.57C19.75 19.65 18.89 20.54 17.84 20.54H17.75V20.59C17.75 21 17.41 21.34 17 21.34C16.59 21.34 16.25 21 16.25 20.59V20.53C15.14 20.48 14.25 19.55 14.25 18.39C14.25 17.98 14.59 17.64 15 17.64C15.41 17.64 15.75 17.98 15.75 18.39C15.75 18.75 16.01 19.04 16.33 19.04H17.83C18.06 19.04 18.24 18.83 18.24 18.57C18.24 18.22 18.18 18.2 17.95 18.12L15.54 17.28C14.68 16.98 14.25 16.37 14.25 15.42C14.25 14.34 15.11 13.45 16.16 13.45H16.25V13.41C16.25 13 16.59 12.66 17 12.66C17.41 12.66 17.75 13 17.75 13.41V13.47C18.86 13.52 19.75 14.45 19.75 15.61C19.75 16.02 19.41 16.36 19 16.36C18.59 16.36 18.25 16.02 18.25 15.61C18.25 15.25 17.99 14.96 17.67 14.96H16.17C15.94 14.96 15.76 15.17 15.76 15.43C15.75 15.77 15.81 15.79 16.05 15.87Z" fill="white"/>
</svg>
