<svg width="25" height="24" viewBox="0 0 25 24" fill="none" xmlns="http://www.w3.org/2000/svg">
<path d="M12.3421 10.6197L12.4004 10.6217L12.4415 10.6135C12.4519 10.613 12.4681 10.6125 12.4896 10.6125C12.534 10.6125 12.5888 10.6145 12.6413 10.6185L12.6719 10.6209L12.7026 10.6195C14.9311 10.5171 16.6783 8.6862 16.6896 6.44253V6.44C16.6896 4.13386 14.8058 2.25 12.4996 2.25C10.1935 2.25 8.30963 4.13386 8.30963 6.44C8.30963 8.70956 10.0832 10.5402 12.3421 10.6197ZM12.6596 11.12H12.6595H12.6593H12.6591H12.6589H12.6588H12.6586H12.6584H12.6582H12.6581H12.6579H12.6577H12.6575H12.6574H12.6572H12.657H12.6568H12.6567H12.6565H12.6563H12.6562H12.656H12.6558H12.6556H12.6555H12.6553H12.6551H12.655H12.6548H12.6546H12.6545H12.6543H12.6541H12.6539H12.6538H12.6536H12.6534H12.6533H12.6531H12.6529H12.6528H12.6526H12.6524H12.6523H12.6521H12.6519H12.6518H12.6516H12.6514H12.6513H12.6511H12.6509H12.6508H12.6506H12.6504H12.6503H12.6501H12.65H12.6498H12.6496H12.6495H12.6493H12.6491H12.649H12.6488H12.6486H12.6485H12.6483H12.6482H12.648H12.6478H12.6477H12.6475H12.6474H12.6472H12.647H12.6469H12.6467H12.6465H12.6464H12.6462H12.6461H12.6459H12.6457H12.6456H12.6454H12.6453H12.6451H12.6449H12.6448H12.6446H12.6445H12.6443H12.6442H12.644H12.6438H12.6437H12.6435H12.6434H12.6432H12.643H12.6429H12.6427H12.6426H12.6424H12.6423H12.6421H12.642H12.6418H12.6416H12.6415H12.6413H12.6412H12.641H12.6409H12.6407H12.6405H12.6404H12.6402H12.6401H12.6399H12.6398H12.6396H12.6395H12.6393H12.6392H12.639H12.6388H12.6387H12.6385H12.6384H12.6382H12.6381H12.6379H12.6378H12.6376H12.6375H12.6373H12.6372H12.637H12.6369H12.6367H12.6366H12.6364H12.6362H12.6361H12.6359H12.6358H12.6356H12.6355H12.6353H12.6352H12.635H12.6349H12.6347H12.6346H12.6344H12.6343H12.6341H12.634H12.6338H12.6337H12.6335H12.6334H12.6332H12.6331H12.6329H12.6328H12.6326H12.6325H12.6323H12.6322H12.632H12.6319H12.6317H12.6316H12.6314H12.6313H12.6311H12.631H12.6308H12.6307H12.6305H12.6304H12.6302H12.6301H12.6299H12.6298H12.6296H12.6295H12.6293H12.6292H12.629H12.6289H12.6287H12.6286H12.6285H12.6283H12.6282H12.628H12.6279H12.6277H12.6276H12.6274H12.6273H12.6271H12.627H12.6268H12.6267H12.6265H12.6264H12.6262H12.6261H12.6259H12.6258H12.6256H12.6255H12.6254H12.6252H12.6251H12.6249H12.6248H12.6246H12.6245H12.6243H12.6242H12.624H12.6239H12.6237H12.6236H12.6234H12.6233H12.6231H12.623H12.6229H12.6227H12.6226H12.6224H12.6223H12.6221H12.622H12.6218H12.6217H12.6215H12.6214H12.6212H12.6211H12.6209H12.6208H12.6207H12.6205H12.6204H12.6202H12.6201H12.6199H12.6198H12.6196H12.6195H12.6193H12.6192H12.619H12.6189H12.6188H12.6186H12.6185H12.6183H12.6182H12.618H12.6179H12.6177H12.6176H12.6176C12.5362 11.1098 12.452 11.1106 12.3755 11.1189C9.76227 11.0178 7.80963 8.96409 7.80963 6.44C7.80963 3.85614 9.91577 1.75 12.4996 1.75C15.0832 1.75 17.1891 3.85562 17.1896 6.43903C17.1802 8.97998 15.1952 11.0348 12.6814 11.12H12.6814H12.6813H12.6813H12.6812H12.6811H12.6811H12.681H12.681H12.6809H12.6808H12.6808H12.6807H12.6807H12.6806H12.6805H12.6805H12.6804H12.6804H12.6803H12.6803H12.6802H12.6801H12.6801H12.68H12.68H12.6799H12.6798H12.6798H12.6797H12.6797H12.6796H12.6796H12.6795H12.6794H12.6794H12.6793H12.6793H12.6792H12.6791H12.6791H12.679H12.679H12.6789H12.6788H12.6788H12.6787H12.6787H12.6786H12.6786H12.6785H12.6784H12.6784H12.6783H12.6783H12.6782H12.6781H12.6781H12.678H12.678H12.6779H12.6779H12.6778H12.6777H12.6777H12.6776H12.6776H12.6775H12.6774H12.6774H12.6773H12.6773H12.6772H12.6772H12.6771H12.677H12.677H12.6769H12.6769H12.6768H12.6767H12.6767H12.6766H12.6766H12.6765H12.6764H12.6764H12.6763H12.6763H12.6762H12.6762H12.6761H12.676H12.676H12.6759H12.6759H12.6758H12.6757H12.6757H12.6756H12.6756H12.6755H12.6755H12.6754H12.6753H12.6753H12.6752H12.6752H12.6751H12.675H12.675H12.6749H12.6749H12.6748H12.6747H12.6747H12.6746H12.6746H12.6745H12.6745H12.6744H12.6743H12.6743H12.6742H12.6742H12.6741H12.674H12.674H12.6739H12.6739H12.6738H12.6738H12.6737H12.6736H12.6736H12.6735H12.6735H12.6734H12.6733H12.6733H12.6732H12.6732H12.6731H12.673H12.673H12.6729H12.6729H12.6728H12.6728H12.6727H12.6726H12.6726H12.6725H12.6725H12.6724H12.6723H12.6723H12.6722H12.6722H12.6721H12.6721H12.672H12.6719H12.6719H12.6718H12.6718H12.6717H12.6716H12.6716H12.6715H12.6715H12.6714H12.6714H12.6713H12.6712H12.6712H12.6711H12.6711H12.671H12.6709H12.6709H12.6708H12.6708H12.6707H12.6706H12.6706H12.6705H12.6705H12.6704H12.6704H12.6703H12.6702H12.6702H12.6701H12.6701H12.67H12.6699H12.6699H12.6698H12.6698H12.6697H12.6697H12.6696H12.6695H12.6695H12.6694H12.6694H12.6693H12.6692H12.6692H12.6691H12.6691H12.669H12.6689H12.6689H12.6688H12.6688H12.6687H12.6687H12.6686H12.6685H12.6685H12.6684H12.6684H12.6683H12.6682H12.6682H12.6681H12.6681H12.668H12.668H12.6679H12.6678H12.6678H12.6677H12.6677H12.6676H12.6675H12.6675H12.6674H12.6674H12.6673H12.6672H12.6672H12.6671H12.6671H12.667H12.667H12.6669H12.6668H12.6668H12.6667H12.6667H12.6666H12.6665H12.6665H12.6664H12.6664H12.6663H12.6663H12.6662H12.6661H12.6661H12.666H12.666H12.6659H12.6658H12.6658H12.6657H12.6657H12.6656H12.6655H12.6655H12.6654H12.6654H12.6653H12.6653H12.6652H12.6651H12.6651H12.665H12.665H12.6649H12.6648H12.6648H12.6647H12.6647H12.6646H12.6646H12.6645H12.6644H12.6644H12.6643H12.6643H12.6642H12.6641H12.6641H12.664H12.664H12.6639H12.6638H12.6638H12.6637H12.6637H12.6636H12.6636H12.6635H12.6634H12.6634H12.6633H12.6633H12.6632H12.6631H12.6631H12.663H12.663H12.6629H12.6629H12.6628H12.6627H12.6627H12.6626H12.6626H12.6625H12.6624H12.6624H12.6623H12.6623H12.6622H12.6622H12.6621H12.662H12.662H12.6619H12.6619H12.6618H12.6617H12.6617H12.6616H12.6616H12.6615H12.6614H12.6614H12.6613H12.6613H12.6612H12.6612H12.6611H12.661H12.661H12.6609H12.6609H12.6608H12.6607H12.6607H12.6606H12.6606H12.6605H12.6605H12.6604H12.6603H12.6603H12.6602H12.6602H12.6601H12.66H12.66H12.6599H12.6599H12.6598H12.6597H12.6597H12.6596Z" fill="#A3A3A3" stroke="#A3A3A3"/>
<path d="M12.6696 22.55C10.7096 22.55 8.73961 22.05 7.24961 21.05C5.85961 20.13 5.09961 18.87 5.09961 17.5C5.09961 16.13 5.85961 14.86 7.24961 13.93C10.2496 11.94 15.1096 11.94 18.0896 13.93C19.4696 14.85 20.2396 16.11 20.2396 17.48C20.2396 18.85 19.4796 20.12 18.0896 21.05C16.5896 22.05 14.6296 22.55 12.6696 22.55ZM8.07961 15.19C7.11961 15.83 6.59961 16.65 6.59961 17.51C6.59961 18.36 7.12961 19.18 8.07961 19.81C10.5696 21.48 14.7696 21.48 17.2596 19.81C18.2196 19.17 18.7396 18.35 18.7396 17.49C18.7396 16.64 18.2096 15.82 17.2596 15.19C14.7696 13.53 10.5696 13.53 8.07961 15.19Z" fill="#A3A3A3"/>
</svg>
