<svg width="25" height="25" viewBox="0 0 25 25" fill="none" xmlns="http://www.w3.org/2000/svg">
<path d="M21.6745 3.47503C21.1745 2.96403 20.4345 2.77503 19.7445 2.97503L3.65449 7.62403C2.92649 7.82603 2.41049 8.40303 2.27149 9.13503C2.12949 9.88103 2.62549 10.829 3.27349 11.225L8.30449 14.297C8.82049 14.613 9.48649 14.534 9.91349 14.106L15.6745 8.34503C15.9645 8.04403 16.4445 8.04403 16.7345 8.34503C17.0245 8.63403 17.0245 9.10503 16.7345 9.40503L10.9635 15.166C10.5355 15.594 10.4555 16.258 10.7705 16.775L13.8445 21.825C14.2045 22.424 14.8245 22.765 15.5045 22.765C15.5845 22.765 15.6745 22.765 15.7545 22.754C16.5345 22.655 17.1545 22.124 17.3845 21.374L22.1545 5.40503C22.3645 4.72503 22.1745 3.98503 21.6745 3.47503Z" fill="white"/>
<path opacity="0.4" fill-rule="evenodd" clip-rule="evenodd" d="M3.25756 17.7045C3.06556 17.7045 2.87356 17.6315 2.72756 17.4845C2.43456 17.1915 2.43456 16.7175 2.72756 16.4245L4.09256 15.0585C4.38556 14.7665 4.86056 14.7665 5.15356 15.0585C5.44556 15.3515 5.44556 15.8265 5.15356 16.1195L3.78756 17.4845C3.64156 17.6315 3.44956 17.7045 3.25756 17.7045ZM7.01876 18.8969C6.82676 18.8969 6.63476 18.8239 6.48876 18.6769C6.19576 18.3839 6.19576 17.9099 6.48876 17.6169L7.85376 16.2509C8.14676 15.9589 8.62176 15.9589 8.91476 16.2509C9.20676 16.5439 9.20676 17.0189 8.91476 17.3119L7.54876 18.6769C7.40276 18.8239 7.21076 18.8969 7.01876 18.8969ZM7.27246 22.4649C7.41846 22.6119 7.61046 22.6849 7.80246 22.6849C7.99446 22.6849 8.18646 22.6119 8.33246 22.4649L9.69846 21.0999C9.99046 20.8069 9.99046 20.3319 9.69846 20.0389C9.40546 19.7469 8.93046 19.7469 8.63746 20.0389L7.27246 21.4049C6.97946 21.6979 6.97946 22.1719 7.27246 22.4649Z" fill="white"/>
</svg>
