<svg width="25" height="24" viewBox="0 0 25 24" fill="none" xmlns="http://www.w3.org/2000/svg">
<path fill-rule="evenodd" clip-rule="evenodd" d="M2.83501 7.875C2.29501 9.002 2.48501 10.321 2.86501 12.958L3.14301 14.895C3.63001 18.283 3.87401 19.976 5.04901 20.988C6.22401 22 7.94701 22 11.394 22H13.606C17.053 22 18.776 22 19.951 20.988C21.126 19.976 21.37 18.283 21.857 14.895L22.136 12.958C22.516 10.321 22.706 9.002 22.165 7.875C21.625 6.748 20.474 6.062 18.173 4.692L16.788 3.867C14.7 2.622 13.654 2 12.5 2C11.346 2 10.301 2.622 8.21201 3.867L6.82701 4.692C4.52701 6.062 3.37601 6.748 2.83501 7.875ZM8.75001 18C8.75001 17.8011 8.82902 17.6103 8.96968 17.4697C9.11033 17.329 9.30109 17.25 9.50001 17.25H15.5C15.6989 17.25 15.8897 17.329 16.0303 17.4697C16.171 17.6103 16.25 17.8011 16.25 18C16.25 18.1989 16.171 18.3897 16.0303 18.5303C15.8897 18.671 15.6989 18.75 15.5 18.75H9.50001C9.30109 18.75 9.11033 18.671 8.96968 18.5303C8.82902 18.3897 8.75001 18.1989 8.75001 18Z" fill="#202D37"/>
</svg>
