<svg width="24" height="24" viewBox="0 0 24 24" fill="none" xmlns="http://www.w3.org/2000/svg">
<path d="M20.9999 16.0901V11.0981C20.9999 6.80815 20.9999 4.66515 19.6819 3.33215C18.3639 2.00014 16.2419 2.00014 11.9999 2.00014C7.75688 2.00014 5.63588 2.00014 4.31788 3.33215C2.99988 4.66515 2.99988 6.81014 2.99988 11.0981V16.0911C2.99988 19.1871 2.99988 20.7361 3.73388 21.4121C4.08388 21.7351 4.52588 21.9381 4.99688 21.9921C5.98388 22.1051 7.13688 21.0851 9.44188 19.0461C10.4619 18.1451 10.9709 17.6941 11.5599 17.5761C11.8499 17.5161 12.1499 17.5161 12.4399 17.5761C13.0299 17.6941 13.5389 18.1451 14.5579 19.0461C16.8629 21.0851 18.0159 22.1051 19.0029 21.9911C19.4729 21.9381 19.9159 21.7351 20.2659 21.4121C20.9999 20.7361 20.9999 19.1871 20.9999 16.0901Z" stroke="#A3A3A3" stroke-width="1.5"/>
<path d="M14.9998 5.99995H8.99976" stroke="#A3A3A3" stroke-width="1.5" stroke-linecap="round"/>
</svg>
