<svg width="20" height="21" viewBox="0 0 20 21" fill="none" xmlns="http://www.w3.org/2000/svg">
<path d="M15.6247 8.59162V8.00412C15.6247 4.77992 13.1047 2.16656 9.99969 2.16656C6.89466 2.16656 4.37464 4.77992 4.37464 8.00412V8.59162C4.37564 9.29292 4.17551 9.9798 3.79797 10.5708L2.87463 12.0083C2.03212 13.3208 2.67546 15.105 4.14131 15.52C7.97143 16.6058 12.028 16.6058 15.8581 15.52C17.3239 15.105 17.9673 13.3208 17.1248 12.0092L16.2014 10.5716C15.8236 9.98073 15.6232 9.29384 15.6239 8.59246L15.6247 8.59162Z" stroke="#171621" stroke-width="1.25001"/>
<path d="M6.24969 16.3333C6.79553 17.7899 8.26805 18.8333 9.99973 18.8333C11.7314 18.8333 13.2039 17.7899 13.7498 16.3333" stroke="#171621" stroke-width="1.25001" stroke-linecap="round"/>
<circle cx="14.1661" cy="5.49993" r="3.33336" fill="#FCFBFC"/>
<circle cx="14.166" cy="5.49971" r="2.22224" fill="#ED544E"/>
</svg>
